<svg width="48" height="33" viewBox="0 0 48 33" fill="none" xmlns="http://www.w3.org/2000/svg">
<path d="M40.0714 11.7857H38.8929L30.88 1.76933C30.4383 1.21731 29.878 0.771676 29.2408 0.465412C28.6035 0.159149 27.9055 8.84e-05 27.1985 0H11.4417C9.51402 0 7.78078 1.17342 7.0648 2.96337L3.53571 11.9522C1.50563 12.4781 0 14.3056 0 16.5V24.75C0 25.4012 0.527411 25.9286 1.17857 25.9286H4.71429C4.71429 29.8341 7.88022 33 11.7857 33C15.6912 33 18.8571 29.8341 18.8571 25.9286H28.2857C28.2857 29.8341 31.4517 33 35.3571 33C39.2626 33 42.4286 29.8341 42.4286 25.9286H45.9643C46.6154 25.9286 47.1429 25.4012 47.1429 24.75V18.8571C47.1429 14.9517 43.9769 11.7857 40.0714 11.7857ZM11.7857 29.4643C9.83592 29.4643 8.25 27.8784 8.25 25.9286C8.25 23.9788 9.83592 22.3929 11.7857 22.3929C13.7355 22.3929 15.3214 23.9788 15.3214 25.9286C15.3214 27.8784 13.7355 29.4643 11.7857 29.4643ZM17.0893 11.7857H8.61315L11.4417 4.71429H17.0893V11.7857ZM20.625 11.7857V4.71429H27.1985L32.8556 11.7857H20.625ZM35.3571 29.4643C33.4073 29.4643 31.8214 27.8784 31.8214 25.9286C31.8214 23.9788 33.4073 22.3929 35.3571 22.3929C37.3069 22.3929 38.8929 23.9788 38.8929 25.9286C38.8929 27.8784 37.3069 29.4643 35.3571 29.4643Z" fill="#0560FA"/>
</svg>
