<svg width="41" height="34" viewBox="0 0 41 34" fill="none" xmlns="http://www.w3.org/2000/svg">
<path fill-rule="evenodd" clip-rule="evenodd" d="M20.422 0L38.1562 4.72704L40.1644 6.17914V27.0028L39.0212 28.4858L20.0822 33.7072L1.11224 28.4858L0 27.0028V6.17914L1.88464 4.72704L19.5879 0H20.422ZM20.144 3.08957L7.78571 6.17914L9.48497 6.79705L20.0822 9.57766L29.3509 7.07511L32.286 6.17914L20.144 3.08957V3.08957ZM3.08957 25.8288L18.5374 30.0615V12.3583L3.08957 8.21825V25.8288ZM21.627 12.3583V30.0615L37.0748 25.8288V8.12556L30.8339 9.8341V17.765L27.7443 18.5683V10.6806L21.627 12.3583Z" fill="#0560FA"/>
</svg>
