<svg width="36" height="36" viewBox="0 0 36 36" fill="none" xmlns="http://www.w3.org/2000/svg">
<path fill-rule="evenodd" clip-rule="evenodd" d="M15.4029 9.092C16.2825 9.25783 17.107 9.63959 17.8024 10.203C18.4978 10.7663 19.0424 11.4937 19.3872 12.3196C19.7319 13.1456 19.8661 14.0442 19.7775 14.9348C19.689 15.8254 19.3806 16.6801 18.8799 17.422L32.7139 28.16C33.1645 27.9266 33.6807 27.8523 34.1788 27.9492C34.6769 28.0462 35.1276 28.3086 35.4577 28.694C35.7878 29.0794 35.978 29.565 35.9973 30.072C36.0167 30.5791 35.864 31.0778 35.5642 31.4872C35.2644 31.8966 34.835 32.1926 34.3458 32.3272C33.8565 32.4618 33.3362 32.4271 32.8691 32.2286C32.4021 32.0302 32.0159 31.6798 31.7731 31.2342C31.5304 30.7886 31.4454 30.274 31.5319 29.774L17.4619 18.852C16.7994 19.306 16.0439 19.6066 15.2505 19.7317C14.4571 19.8568 13.6458 19.8033 12.8757 19.5752C12.1055 19.347 11.396 18.95 10.7988 18.4129C10.2015 17.8759 9.73158 17.2124 9.42321 16.4707C9.11485 15.7291 8.97582 14.928 9.01624 14.1258C9.05667 13.3236 9.27553 12.5405 9.65689 11.8336C10.0383 11.1268 10.5725 10.5138 11.2207 10.0396C11.8689 9.56526 12.6148 9.24155 13.4039 9.092L13.4019 0H15.4019L15.4029 9.092ZM16.2019 14.4C16.2019 14.6364 16.1554 14.8704 16.0649 15.0888C15.9745 15.3072 15.8419 15.5056 15.6747 15.6728C15.5076 15.8399 15.3092 15.9725 15.0908 16.063C14.8724 16.1534 14.6383 16.2 14.4019 16.2C14.1656 16.2 13.9315 16.1534 13.7131 16.063C13.4947 15.9725 13.2963 15.8399 13.1292 15.6728C12.962 15.5056 12.8294 15.3072 12.739 15.0888C12.6485 14.8704 12.6019 14.6364 12.6019 14.4C12.6019 13.9226 12.7916 13.4648 13.1292 13.1272C13.4667 12.7896 13.9246 12.6 14.4019 12.6C14.8793 12.6 15.3372 12.7896 15.6747 13.1272C16.0123 13.4648 16.2019 13.9226 16.2019 14.4Z" fill="#0560FA"/>
<path d="M21.626 14.384C21.6263 13.0008 21.2282 11.6467 20.4793 10.4837C19.7304 9.32072 18.6624 8.39805 17.403 7.826V0.106C21.692 0.483 23.92 1.834 25.915 3.683C26.015 3.777 26.115 3.868 26.211 3.956V3.957C27.061 4.737 27.737 5.358 28.086 6.288L32.32 17.56C32.4335 17.8625 32.4719 18.1881 32.432 18.5087C32.3921 18.8294 32.2751 19.1356 32.091 19.4011C31.9069 19.6666 31.6611 19.8836 31.3748 20.0333C31.0885 20.1831 30.7701 20.2612 30.447 20.261H28.816V22.6L21.241 16.717C21.4974 15.9663 21.6279 15.1783 21.627 14.385L21.626 14.384ZM11.403 7.846V0.241C2.413 1.594 0 8.301 0 11.975C0 17.742 3.683 22.215 5.41 24.008V36H22.522V29.488H26.815C27.117 29.488 27.405 29.42 27.661 29.3L17.076 21.08C15.3265 21.802 13.3631 21.806 11.6106 21.0914C9.85813 20.3767 8.45752 19.0007 7.71184 17.2612C6.96617 15.5217 6.93539 13.5585 7.62619 11.7965C8.31698 10.0344 9.67378 8.61525 11.403 7.846Z" fill="#0560FA"/>
</svg>
